<?xml version="1.0" encoding="UTF-8"?>
<svg id="Layer_1" xmlns="http://www.w3.org/2000/svg" version="1.1" viewBox="0 0 800 200">
  <!-- Generator: Adobe Illustrator 29.6.1, SVG Export Plug-In . SVG Version: 2.1.1 Build 9)  -->
  <defs>
    <style>
      .st0 {
        fill: #f97316;
      }

      .st1 {
        isolation: isolate;
      }

      .st2 {
        fill: #122a39;
      }
    </style>
  </defs>
  <path class="st0" d="M101.43,138.35c-6.87-5.61-15.01-9.19-23.92-9.97l-.03-4.12c12.76-1.61,22.5-10.68,26.03-22.87.31-1.08,1.24-4.18,1.24-5.08v-5.48c6.6,4.74,12.44-5.6,5.88-8.7-2.43-1.15-3.56-.58-5.87.39.22-5.54-.11-11.03-1.99-16.28,4.3,1.6,7.86-3.02,5.47-6.96-2.26-3.72-8.74-2.11-8.73,2.48,0,.96.94,2.49.86,2.93-.18,1.07-5.43,6.16-5.2,7.32,1.65,1.65,2.98,3.21,2.97,5.7,0,.86-.58,2.21-.2,2.82l5.74,3.82-.75,1.83c-1.73-.56-5.04-3.4-6.4-3.6-.45-.06-2.99.99-3.23,1.28-.86,1-.44,5.86-.84,7.47.15.79,1.38,1.22,2,2,3.51,4.45-1.4,10.42-6.4,7.73-4.5-2.42-2.93-9.7,2.4-9.57l.62-7.44c-3.5-1.63-5.53-5.36-4.08-9.15l-3.73-3.97c-3.15.54-6.43.7-7.82-2.79-2.87-7.23,8.4-10.31,9.89-2.91.34,1.67-.8,3.78-.7,4.01.17.38,3.27,3.3,3.65,3.31,1.15-.99,3.87-.83,4.73-1.43.31-.22,4.42-5.85,4.58-6.23.54-1.2-1.24-3.57-1.95-4.68-4.84-7.51-16.74-16.24-25.97-16.24h-6.15v-10.14c.85-.79,2.2-1.33,2.99-2.16,24.99,1.43,47.6,19.89,54.27,43.93,6.57,23.69-1.28,46.91-19.37,62.74h0ZM91.36,74.28c-3.39.78-3.32,6.8.93,6.94,5.2.16,4.57-8.19-.93-6.94Z"/>
  <path class="st0" d="M54.24,31.68c.4.42,2.29,1.52,2.99,1.66v10.64c-17.27-.96-35.05,11.49-36.7,29.27-.26.36-3.33.45-4.25.74-1.98.61-3.75,2.63-4.4,4.57-.86,2.55-.81,12.76-.51,15.77.49,4.99,3.94,8.15,8.97,7.15-.28,9.82,8.67,18.8,17.62,21.43.88.26,5.59,1.09,5.67,1.37l-.33,4.3c-8.02.97-16.12,4.13-21.95,9.78C-17.15,105.41-.23,40.89,49.52,32.45c1.5-.26,3.33.29,4.72-.77h0Z"/>
  <path class="st0" d="M76.08,76.62c9.82-1.49,11.32,13.96,2.22,15.17-9.84,1.31-11.12-13.82-2.22-15.17Z"/>
  <circle class="st0" cx="43.73" cy="84.19" r="7.44"/>
  <path class="st2" d="M110.63,82.14c-2.43-1.15-3.55-.58-5.87.39.22-5.54-.11-11.03-1.99-16.28,4.3,1.61,7.85-3.02,5.47-6.96-2.26-3.73-8.73-2.11-8.73,2.48,0,.96.93,2.49.86,2.93-.18,1.07-5.43,6.15-5.2,7.32,1.65,1.64,2.98,3.2,2.97,5.7,0,.86-.58,2.21-.2,2.82l5.74,3.82-.75,1.83c-1.74-.56-5.05-3.4-6.4-3.6-.45-.07-2.98.99-3.23,1.28-.86,1-.44,5.86-.84,7.47.15.79,1.38,1.22,2,2,3.51,4.45-1.4,10.42-6.4,7.73-4.5-2.42-2.93-9.7,2.4-9.57l.62-7.44c-3.5-1.63-5.52-5.36-4.08-9.15l-3.73-3.97c-3.15.54-6.43.7-7.82-2.79-2.87-7.23,8.4-10.31,9.89-2.91.34,1.67-.8,3.79-.7,4.01.17.38,3.27,3.3,3.65,3.31,1.15-.99,3.88-.83,4.73-1.43.31-.22,4.42-5.85,4.58-6.23.54-1.2-1.23-3.57-1.95-4.68-4.84-7.51-16.74-16.24-25.97-16.24h-6.15v-10.14c.85-.79,2.2-1.34,2.99-2.16h0c5.69-5.98-.43-16.83-8.87-13.68-5.28,1.96-7.39,9.5-3.43,13.68.4.43,2.28,1.52,2.99,1.66v10.64c-17.27-.95-35.05,11.49-36.7,29.27-.26.36-3.33.45-4.25.74-1.98.61-3.75,2.64-4.4,4.57-.86,2.55-.81,12.75-.51,15.77.49,4.99,3.94,8.15,8.97,7.15-.28,9.82,8.67,18.8,17.62,21.43.88.26,5.59,1.09,5.67,1.37l-.33,4.3c-8.02.97-16.12,4.13-21.95,9.78,23.57,20.17,56.9,20.29,80.09,0-6.87-5.61-15.01-9.18-23.92-9.97l-.03-4.12c12.76-1.61,22.5-10.68,26.03-22.87.31-1.08,1.24-4.19,1.24-5.08v-5.48c6.6,4.74,12.44-5.6,5.88-8.7ZM36.29,84.19c0-4.11,3.33-7.44,7.44-7.44s7.44,3.33,7.44,7.44-3.33,7.44-7.44,7.44-7.44-3.33-7.44-7.44ZM53.63,105.19c-1.39-1-3.03-2.54-4.28-2.38,1.25-.17,2.89,1.37,4.28,2.38ZM47.74,104.7c-.02.83.37,1.75,1.01,2.41,1.36,1.37,3.2,2.4,5.29,3.07-2.09-.67-3.94-1.7-5.29-3.07-.65-.65-1.03-1.57-1.01-2.41ZM72.52,106.62c-.09.1-.19.2-.28.31.1-.1.19-.2.28-.31.44-.52.65-1.12.65-1.7,0,.57-.2,1.17-.65,1.7ZM78.3,91.79c-9.84,1.31-11.13-13.82-2.22-15.17,9.82-1.49,11.32,13.96,2.22,15.17Z"/>
  <path class="st2" d="M91.36,74.28c5.5-1.26,6.12,7.09.93,6.94-4.25-.13-4.32-6.16-.93-6.94Z"/>
  <g class="st1">
    <g class="st1">
      <path class="st0" d="M215.46,134.46l-7.04-16.81h-30.01l9.09-11.83h16.03l-9.19-21.89-38.71,50.54h-17.31l52.2-67.16c2.25-2.93,4.89-4.89,8.21-4.89s5.18,1.95,6.45,4.89l28.54,67.16h-18.28,0Z"/>
      <path class="st0" d="M241.06,134.46l12.51-71.07h15.25l-12.51,71.07h-15.25Z"/>
      <path class="st0" d="M297.57,134.46l12.51-71.07h15.25l-9.77,55.82h45.95l-2.74,15.25h-61.2,0Z"/>
      <path class="st0" d="M439.02,134.46l-7.04-16.81h-30.01l9.09-11.83h16.03l-9.19-21.89-38.71,50.54h-17.31l52.2-67.16c2.25-2.93,4.89-4.89,8.21-4.89s5.18,1.95,6.45,4.89l28.54,67.16h-18.28Z"/>
      <path class="st0" d="M463.85,134.46l12.51-71.07h52.3c12.9,0,21.02,5.28,21.02,15.55s-5.96,15.44-11.14,17.7c4.2,1.95,7.23,6.55,7.23,12.61,0,14.76-11.83,25.22-27.76,25.22h-54.16ZM493.18,104.35l2.15-12.03h28.54c6.65,0,9.48-2.93,9.48-8.12,0-4.3-3.52-5.67-9.38-5.67h-35l-7.23,40.76h36.17c7.23,0,12.22-2.84,12.22-8.9,0-3.81-2.54-6.06-7.33-6.06h-29.62Z"/>
      <path class="st0" d="M551.24,134.46l12.51-71.07h52.3c12.9,0,21.02,5.28,21.02,15.55s-5.96,15.44-11.14,17.7c4.2,1.95,7.23,6.55,7.23,12.61,0,14.76-11.83,25.22-27.76,25.22h-54.16ZM580.56,104.35l2.15-12.03h28.54c6.65,0,9.48-2.93,9.48-8.12,0-4.3-3.52-5.67-9.38-5.67h-35l-7.23,40.76h36.17c7.23,0,12.22-2.84,12.22-8.9,0-3.81-2.54-6.06-7.33-6.06h-29.62Z"/>
      <path class="st0" d="M638.73,134.46l12.51-71.07h64.52l-2.64,15.25h-49.36l-7.14,40.57h49.47l-2.74,15.25h-64.62ZM668.06,104.35l2.15-12.03h37.73l-2.15,12.03h-37.73Z"/>
      <path class="st0" d="M735.7,85.78l-8.51,48.68h-14.47l11.14-62.96c.98-5.57,4.5-8.99,9.19-8.99,2.25,0,3.91.68,5.67,2.84l38.13,46.04,8.8-48.68h14.57l-11.14,63.64c-.98,5.67-4.79,9.09-9.29,9.09-2.35,0-4.01-.88-5.67-2.93l-38.42-46.73h0Z"/>
    </g>
  </g>
</svg>