<?xml version="1.0" encoding="UTF-8"?>
<svg id="Layer_1" xmlns="http://www.w3.org/2000/svg" version="1.1" viewBox="0 0 1366 768">
  <!-- Generator: Adobe Illustrator 29.6.1, SVG Export Plug-In . SVG Version: 2.1.1 Build 9)  -->
  <defs>
    <style>
      .st0 {
        fill: #f97316;
      }

      .st1 {
        fill: #122a39;
      }
    </style>
  </defs>
  <path class="st0" d="M863.71,568.71c-25.23-20.61-55.16-33.76-87.9-36.64l-.08-15.15c46.87-5.93,82.64-39.22,95.63-84.02,1.15-3.97,4.56-15.36,4.56-18.64v-20.15c24.27,17.41,45.7-20.57,21.58-31.96-8.92-4.21-13.06-2.14-21.57,1.43.79-20.37-.41-40.55-7.32-59.82,15.8,5.88,28.86-11.11,20.08-25.59-8.3-13.69-32.1-7.76-32.08,9.11,0,3.53,3.45,9.14,3.18,10.77-.65,3.93-19.93,22.61-19.1,26.9,6.06,6.06,10.94,11.78,10.91,20.94-.01,3.16-2.13,8.14-.76,10.36l21.1,14.04-2.74,6.72c-6.38-2.06-18.54-12.49-23.5-13.21-1.67-.24-10.98,3.65-11.89,4.71-3.16,3.68-1.63,21.53-3.1,27.44.58,2.91,5.07,4.46,7.34,7.33,12.88,16.35-5.12,38.28-23.52,28.4-16.53-8.88-10.77-35.65,8.82-35.17l2.29-27.32c-12.86-5.97-20.3-19.7-14.98-33.6l-13.72-14.59c-11.57,1.99-23.64,2.57-28.74-10.25-10.56-26.55,30.86-37.89,36.36-10.71,1.24,6.14-2.93,13.91-2.56,14.74.62,1.39,12.03,12.13,13.43,12.16,4.22-3.64,14.23-3.04,17.37-5.24,1.16-.82,16.23-21.5,16.85-22.88,1.97-4.41-4.53-13.12-7.16-17.19-17.78-27.62-61.51-59.67-95.39-59.67h-22.59v-37.24c3.13-2.92,8.09-4.9,10.99-7.94,91.79,5.27,174.89,73.06,199.38,161.41,24.14,87.04-4.71,172.36-71.18,230.52ZM826.73,333.33c-12.47,2.86-12.21,25,3.4,25.48,19.11.58,16.79-30.11-3.4-25.48Z"/>
  <path class="st0" d="M690.34,176.79c1.47,1.56,8.41,5.59,10.99,6.1v39.07c-63.47-3.52-128.79,42.22-134.83,107.52-.94,1.35-12.25,1.68-15.6,2.71-7.28,2.24-13.78,9.67-16.19,16.78-3.17,9.38-2.96,46.85-1.86,57.95,1.82,18.32,14.49,29.95,32.94,26.26-1.04,36.1,31.83,69.05,64.73,78.74,3.24.95,20.54,4,20.82,5.03l-1.21,15.81c-29.46,3.57-59.23,15.19-80.66,35.94-141.44-121.04-79.27-358.09,103.54-389.08,5.51-.93,12.26,1.09,17.33-2.84Z"/>
  <path class="st1" d="M735.51,176.79c-2.89,3.04-7.86,5.02-10.99,7.94v37.24h22.59c33.88,0,77.62,32.05,95.39,59.67,2.62,4.08,9.13,12.78,7.16,17.19-.62,1.38-15.68,22.06-16.85,22.88-3.14,2.2-13.15,1.6-17.37,5.24-1.41-.03-12.81-10.78-13.43-12.16-.37-.83,3.8-8.6,2.56-14.74-5.5-27.18-46.92-15.84-36.36,10.71,5.1,12.82,17.18,12.24,28.74,10.25l13.72,14.59c-5.32,13.9,2.12,27.63,14.98,33.6l-2.29,27.32c-19.59-.48-25.36,26.28-8.82,35.17,18.39,9.88,36.4-12.05,23.52-28.4-2.26-2.87-6.76-4.42-7.34-7.33,1.47-5.91-.06-23.76,3.1-27.44.91-1.06,10.21-4.95,11.89-4.71,4.96.72,17.13,11.15,23.5,13.21l2.74-6.72-21.1-14.04c-1.38-2.21.75-7.2.76-10.36.03-9.16-4.85-14.88-10.91-20.94-.84-4.29,18.44-22.97,19.1-26.9.27-1.63-3.18-7.24-3.18-10.77-.02-16.86,23.78-22.8,32.08-9.11,8.78,14.48-4.29,31.47-20.08,25.59,6.91,19.27,8.11,39.45,7.32,59.82,8.51-3.56,12.66-5.64,21.57-1.43,24.12,11.39,2.69,49.37-21.58,31.96v20.15c0,3.28-3.41,14.67-4.56,18.64-12.98,44.8-48.76,78.08-95.63,84.02l.08,15.15c32.73,2.88,62.67,16.03,87.9,36.64-85.2,74.55-207.67,74.09-294.25,0,21.43-20.74,51.2-32.37,80.66-35.94l1.21-15.81c-.28-1.03-17.59-4.08-20.82-5.03-32.9-9.69-65.76-42.64-64.73-78.74-18.46,3.69-31.12-7.95-32.94-26.26-1.1-11.09-1.32-48.57,1.86-57.95,2.41-7.11,8.91-14.53,16.19-16.78,3.35-1.03,14.66-1.36,15.6-2.71,6.05-65.3,71.36-111.04,134.83-107.52v-39.07c-2.58-.51-9.51-4.54-10.99-6.1-14.54-15.39-6.79-43.07,12.59-50.28,31.02-11.54,53.51,28.32,32.58,50.28ZM679.1,369.73c0-15.11-12.25-27.35-27.35-27.35s-27.35,12.25-27.35,27.35,12.25,27.35,27.35,27.35,27.35-12.25,27.35-27.35ZM770.6,341.91c-32.72,4.96-28,60.57,8.15,55.75,33.45-4.46,27.93-61.22-8.15-55.75ZM671.68,438.28c-7.19,2.1-6.23,10.88-1.5,15.67,19.91,20.17,68.74,19.97,87.32-1.82,5.22-6.12,1.44-15.27-6.67-14.1-1.69.24-13.64,9.93-18.67,11.95-13.35,5.36-27.13,5.46-40.23-.69-5.82-2.73-14.42-12.72-20.25-11.01Z"/>
  <path class="st0" d="M770.6,341.91c36.08-5.47,41.6,51.3,8.15,55.75-36.15,4.82-40.87-50.79-8.15-55.75Z"/>
  <circle class="st0" cx="651.75" cy="369.73" r="27.35"/>
  <path class="st1" d="M671.68,438.28c5.83-1.7,14.44,8.28,20.25,11.01,13.1,6.15,26.88,6.05,40.23.69,5.03-2.02,16.98-11.71,18.67-11.95,8.11-1.17,11.89,7.98,6.67,14.1-18.58,21.79-67.41,21.98-87.32,1.82-4.73-4.79-5.69-13.57,1.5-15.67Z"/>
  <path class="st1" d="M826.73,333.33c20.19-4.63,22.51,26.07,3.4,25.48-15.61-.48-15.87-22.62-3.4-25.48Z"/>
</svg>