<?xml version="1.0" encoding="UTF-8"?>
<svg id="Layer_1" xmlns="http://www.w3.org/2000/svg" version="1.1" viewBox="0 0 1366 768">
  <!-- Generator: Adobe Illustrator 29.6.1, SVG Export Plug-In . SVG Version: 2.1.1 Build 9)  -->
  <defs>
    <style>
      .st0, .st1 {
        fill: #f97316;
      }

      .st1 {
        font-family: GoodTimesRg-BoldItalic, 'Good Times';
        font-size: 152.74px;
        font-style: italic;
        font-weight: 700;
      }

      .st2 {
        fill: #122a39;
      }
    </style>
  </defs>
  <g>
    <path class="st0" d="M208.9,459.82c-10.73-8.77-23.46-14.36-37.38-15.58l-.04-6.44c19.93-2.52,35.15-16.68,40.67-35.73.49-1.69,1.94-6.53,1.94-7.93v-8.57c10.32,7.4,19.44-8.75,9.18-13.59-3.79-1.79-5.56-.91-9.17.61.34-8.66-.17-17.24-3.11-25.44,6.72,2.5,12.28-4.72,8.54-10.88-3.53-5.82-13.65-3.3-13.64,3.87,0,1.5,1.47,3.89,1.35,4.58-.28,1.67-8.48,9.62-8.12,11.44,2.58,2.58,4.65,5.01,4.64,8.9,0,1.34-.91,3.46-.32,4.4l8.97,5.97-1.17,2.86c-2.71-.88-7.88-5.31-10-5.62-.71-.1-4.67,1.55-5.05,2-1.34,1.57-.69,9.16-1.32,11.67.24,1.24,2.16,1.9,3.12,3.12,5.48,6.95-2.18,16.28-10,12.08-7.03-3.78-4.58-15.16,3.75-14.96l.97-11.62c-5.47-2.54-8.64-8.38-6.37-14.29l-5.83-6.2c-4.92.85-10.05,1.09-12.22-4.36-4.49-11.29,13.12-16.11,15.46-4.55.53,2.61-1.25,5.91-1.09,6.27.26.59,5.11,5.16,5.71,5.17,1.79-1.55,6.05-1.29,7.39-2.23.49-.35,6.9-9.14,7.16-9.73.84-1.88-1.93-5.58-3.04-7.31-7.56-11.74-26.16-25.37-40.57-25.37h-9.61v-15.84c1.33-1.24,3.44-2.08,4.67-3.38,39.04,2.24,74.37,31.07,84.79,68.64,10.26,37.02-2,73.3-30.27,98.03ZM193.17,359.72c-5.3,1.22-5.19,10.63,1.45,10.84,8.13.25,7.14-12.8-1.45-10.84Z"/>
    <path class="st0" d="M135.17,293.15c.63.66,3.58,2.38,4.67,2.6v16.62c-26.99-1.5-54.77,17.96-57.34,45.73-.4.57-5.21.71-6.64,1.15-3.1.95-5.86,4.11-6.88,7.14-1.35,3.99-1.26,19.93-.79,24.64.77,7.79,6.16,12.74,14.01,11.17-.44,15.35,13.54,29.37,27.53,33.49,1.38.41,8.74,1.7,8.86,2.14l-.52,6.72c-12.53,1.52-25.19,6.46-34.3,15.28-60.15-51.48-33.71-152.29,44.03-165.47,2.34-.4,5.21.46,7.37-1.21Z"/>
    <path class="st2" d="M154.38,293.15c-1.23,1.29-3.34,2.14-4.67,3.38v15.84h9.61c14.41,0,33.01,13.63,40.57,25.37,1.12,1.73,3.88,5.44,3.04,7.31-.26.59-6.67,9.38-7.16,9.73-1.33.94-5.59.68-7.39,2.23-.6-.01-5.45-4.58-5.71-5.17-.16-.35,1.62-3.66,1.09-6.27-2.34-11.56-19.95-6.74-15.46,4.55,2.17,5.45,7.3,5.21,12.22,4.36l5.83,6.2c-2.26,5.91.9,11.75,6.37,14.29l-.97,11.62c-8.33-.2-10.78,11.18-3.75,14.96,7.82,4.2,15.48-5.12,10-12.08-.96-1.22-2.88-1.88-3.12-3.12.63-2.51-.03-10.11,1.32-11.67.39-.45,4.34-2.11,5.05-2,2.11.31,7.28,4.74,10,5.62l1.17-2.86-8.97-5.97c-.59-.94.32-3.06.32-4.4.01-3.9-2.06-6.33-4.64-8.9-.36-1.83,7.84-9.77,8.12-11.44.11-.69-1.35-3.08-1.35-4.58,0-7.17,10.11-9.7,13.64-3.87,3.73,6.16-1.82,13.39-8.54,10.88,2.94,8.2,3.45,16.78,3.11,25.44,3.62-1.52,5.38-2.4,9.17-.61,10.26,4.84,1.14,21-9.18,13.59v8.57c0,1.39-1.45,6.24-1.94,7.93-5.52,19.05-20.74,33.21-40.67,35.73l.04,6.44c13.92,1.23,26.65,6.82,37.38,15.58-36.24,31.7-88.32,31.51-125.14,0,9.11-8.82,21.77-13.77,34.3-15.28l.52-6.72c-.12-.44-7.48-1.73-8.86-2.14-13.99-4.12-27.97-18.14-27.53-33.49-7.85,1.57-13.24-3.38-14.01-11.17-.47-4.72-.56-20.65.79-24.64,1.02-3.02,3.79-6.18,6.88-7.14,1.43-.44,6.24-.58,6.64-1.15,2.57-27.77,30.35-47.22,57.34-45.73v-16.62c-1.1-.22-4.05-1.93-4.67-2.6-6.18-6.54-2.89-18.32,5.36-21.38,13.19-4.91,22.75,12.04,13.86,21.38ZM130.39,375.2c0-6.42-5.21-11.63-11.63-11.63s-11.63,5.21-11.63,11.63,5.21,11.63,11.63,11.63,11.63-5.21,11.63-11.63ZM169.3,363.37c-13.92,2.11-11.91,25.76,3.47,23.71,14.22-1.9,11.88-26.04-3.47-23.71ZM127.23,404.35c-3.06.89-2.65,4.63-.64,6.66,8.47,8.58,29.23,8.49,37.14-.77,2.22-2.6.61-6.49-2.84-6-.72.1-5.8,4.22-7.94,5.08-5.68,2.28-11.54,2.32-17.11-.3-2.47-1.16-6.13-5.41-8.61-4.68Z"/>
    <path class="st0" d="M169.3,363.37c15.34-2.33,17.69,21.81,3.47,23.71-15.38,2.05-17.38-21.6-3.47-23.71Z"/>
    <circle class="st0" cx="118.75" cy="375.2" r="11.63"/>
    <path class="st2" d="M127.23,404.35c2.48-.72,6.14,3.52,8.61,4.68,5.57,2.62,11.43,2.57,17.11.3,2.14-.86,7.22-4.98,7.94-5.08,3.45-.5,5.06,3.39,2.84,6-7.9,9.27-28.67,9.35-37.14.77-2.01-2.04-2.42-5.77.64-6.66Z"/>
    <path class="st2" d="M193.17,359.72c8.59-1.97,9.57,11.08,1.45,10.84-6.64-.2-6.75-9.62-1.45-10.84Z"/>
  </g>
  <text class="st1" transform="translate(265.18 453.74)"><tspan x="0" y="0">AI Labben</tspan></text>
</svg>